# xmcd
#
# Track frame offsets:
#	150
#	20533
#	41580
#	56135
#	76977
#	102130
#	119940
#	144913
#	160850
#	176607
#	188576
#
# Disc length: 2848 seconds
# Revision: 0
# Processed by: cddbd v1.5.2PL0 Copyright (c) Steve Scherf et al.
# Submitted via: dBpowerAMP V12.0
#
DISCID=8f0b1e0b
DTITLE=Mossy Creek - Knee Deep in Mossy Creek
DYEAR=2007
DGENRE=Bluegrass
TTITLE0=Storm Before The Calm
TTITLE1=Bad Sign
TTITLE2=Cecilia
TTITLE3=Blowing Out The Old Barn Door
TTITLE4=Haley's Comet
TTITLE5=You Are Not Alone
TTITLE6=Erin go Bragh (Ireland Forever) - in The Country
TTITLE7=Backstep to Memphis
TTITLE8=Home From Tennessee
TTITLE9=Mexico
TTITLE10=Blue Horizon
EXTD=
EXTT0=
EXTT1=
EXTT2=
EXTT3=
EXTT4=
EXTT5=
EXTT6=
EXTT7=
EXTT8=
EXTT9=
EXTT10=
PLAYORDER=
